# xmcd
#
# Track frame offsets: 
#        150
#        12530
#        24790
#        39875
#        53433
#        64320
#        74313
#        87458
#
# Disc length: 1401 seconds
#
# Revision: 0
# Processed by: cddbd v1.5.2PL0 Copyright (c) Steve Scherf et al.
# Submitted via: ExactAudioCopy v0.95b3
#
DISCID=5d057708
DTITLE=The Beatles  - Way Beyond Compare - Episode 05 Hamburg With Ton
DTITLE=y Sheridan (22-24 June 1961)  FLAC
DYEAR=1900
DGENRE=
TTITLE0=My Bonnie (Mein Herz Ist Bei Dir Nur( (stereo)
TTITLE1=My Bonnie - with English intro (stereo)
TTITLE2=The Saints (When The Saints Go Marching In) (stereo)
TTITLE3=Why (Can't You Love Me Again) (stereo)
TTITLE4=Cry For A Shadow
TTITLE5=Ain't She Sweet (stereo)
TTITLE6=Take Out Some Insurance On Me Baby (stereo)
TTITLE7=Nobody's Child (stereo)
EXTD=
EXTT0=
EXTT1=
EXTT2=
EXTT3=
EXTT4=
EXTT5=
EXTT6=
EXTT7=
PLAYORDER=
